# xmcd
#
# Track frame offsets: 
#        150
#        14612
#        27219
#        38948
#        49924
#        61606
#        75728
#        88779
#        104010
#        118734
#        128973
#        148502
#        165478
#        178858
#        195795
#        208892
#        223227
#        233158
#        235290
#        249069
#        263816
#        274424
#        283567
#        302157
#        311462
#        322771
#
# Disc length: 4462 seconds
#
# Revision: 0
# Processed by: cddbd v1.5.2PL0 Copyright (c) Steve Scherf et al.
# Submitted via: ExactAudioCopy v1.0b1
#
DISCID=75116c1a
DTITLE=Bob Wills - 26 More Rare Presto Label Items
DYEAR=2006
DGENRE=Western Swing
TTITLE0=Old Shep
TTITLE1=Josephine (Instrumental)
TTITLE2=Sugar Blues
TTITLE3=Cotton Patch Blues
TTITLE4=Still Water Runs The Deepest
TTITLE5=Milkcow Blues
TTITLE6=Dream Train (Instrumental)
TTITLE7=There's A Big Rock In The Road
TTITLE8=I Love You So Much It Hurts
TTITLE9=Please Don't Leave Me
TTITLE10=Dreamy Eyes Waltz (Instrumental)
TTITLE11=I'm A Fool To Care
TTITLE12=La Golondrina (Instrumental)
TTITLE13=The Last Letter
TTITLE14=I Care No More
TTITLE15=Corrine Corrina
TTITLE16=Stay A Little Longer
TTITLE17=Pay Off (Instrumental)
TTITLE18=Cherokee Maiden
TTITLE19=Osage Stomp (Instramental)
TTITLE20=You're The Sweetest Rose In Texas
TTITLE21=Don't Let Your Deal Go Down (Instrumental)
TTITLE22=Molly Darling
TTITLE23=Yearning Just For You
TTITLE24=Those Gone And Left Me Blues
TTITLE25=Little Star Of Heaven
EXTD=
EXTT0=
EXTT1=
EXTT2=
EXTT3=
EXTT4=
EXTT5=
EXTT6=
EXTT7=
EXTT8=
EXTT9=
EXTT10=
EXTT11=
EXTT12=
EXTT13=
EXTT14=
EXTT15=
EXTT16=
EXTT17=
EXTT18=
EXTT19=
EXTT20=
EXTT21=
EXTT22=
EXTT23=
EXTT24=
EXTT25=
PLAYORDER=
